<svg version="1.1" xmlns="http://www.w3.org/2000/svg" xmlns:xlink="http://www.w3.org/1999/xlink" width="20" height="16" viewBox="0,0,256,204.79167"><g fill="none" fill-rule="nonzero" stroke="#ffffff" stroke-width="1.5" stroke-linecap="round" stroke-linejoin="round" stroke-miterlimit="10" stroke-dasharray="" stroke-dashoffset="0" font-family="none" font-weight="none" font-size="none" text-anchor="none" style="mix-blend-mode: normal"><g transform="translate(0,0.00403) scale(12.8,12.8)"><path d="M10,1.54102c-6.25,0 -8.75,6.45905 -8.75,6.45905c0,0 2.5,6.45763 8.75,6.45763c6.25,0 8.75,-6.45763 8.75,-6.45763c0,0 -2.5,-6.45905 -8.75,-6.45905z"></path><path d="M10,11.125c0.8288,0 1.6237,-0.3292 2.2097,-0.9153c0.5861,-0.58604 0.9153,-1.3809 0.9153,-2.2097c0,-0.8288 -0.3292,-1.62366 -0.9153,-2.20971c-0.586,-0.58605 -1.3809,-0.91529 -2.2097,-0.91529c-0.8288,0 -1.62366,0.32924 -2.20971,0.91529c-0.58605,0.58605 -0.91529,1.38091 -0.91529,2.20971c0,0.8288 0.32924,1.62366 0.91529,2.2097c0.58605,0.5861 1.38091,0.9153 2.20971,0.9153z"></path></g></g></svg>