<svg width="12" height="13" viewBox="0 0 12 13" fill="none" xmlns="http://www.w3.org/2000/svg">
<path d="M6.2066 9.44091L8.57098 10.9387C8.87323 11.1299 9.24823 10.8453 9.1586 10.4924L8.47572 7.80553C8.45644 7.73069 8.45866 7.65192 8.48214 7.57829C8.50563 7.50465 8.54942 7.43914 8.60847 7.38928L10.7287 5.62491C11.007 5.39316 10.8637 4.93078 10.5056 4.90753L7.73697 4.72753C7.66243 4.72224 7.59093 4.69589 7.53078 4.65154C7.47063 4.6072 7.42431 4.54668 7.39722 4.47703L6.36448 1.87678C6.33635 1.80288 6.28644 1.73928 6.22134 1.6944C6.15624 1.64952 6.07904 1.62549 5.99998 1.62549C5.92091 1.62549 5.84371 1.64952 5.77861 1.6944C5.71351 1.73928 5.6636 1.80288 5.63548 1.87678L4.60273 4.47703C4.57569 4.54675 4.5294 4.60734 4.46925 4.65176C4.4091 4.69618 4.33756 4.72259 4.26298 4.72791L1.49435 4.90791C1.1366 4.93078 0.992601 5.39316 1.27123 5.62491L3.39148 7.38966C3.45047 7.43948 3.49421 7.50493 3.51769 7.57849C3.54118 7.65205 3.54344 7.73074 3.52423 7.80553L2.89123 10.2974C2.7836 10.7208 3.23398 11.0624 3.59623 10.8325L5.79373 9.44091C5.85549 9.40164 5.92716 9.38078 6.00035 9.38078C6.07354 9.38078 6.14521 9.40164 6.20697 9.44091H6.2066Z" fill="#CCCCCC"/>
</svg>
